<svg id="Capa_1" enable-background="new 0 0 510.669 510.669" height="512" viewBox="0 0 510.669 510.669" width="512" xmlns="http://www.w3.org/2000/svg"><g><path d="m278.002 114.023c1.536-5.4 1.849-11.234.657-17.117-2.925-14.436-14.041-25.113-27.524-28.194-.112-1.184-.283-2.371-.525-3.562-3.424-16.899-18.952-28.248-35.723-26.865-10.323-8.674-15.465-18.818-14.579-30.672.214-2.863-3.085-4.655-5.357-2.898-13.651 10.56-20.535 24.424-20.705 41.565-18.024 3.848-29.633 21.496-25.964 39.603.288 1.422.671 2.798 1.124 4.136-10.409 8.216-15.93 21.848-13.117 35.733 1.363 6.729 4.506 12.641 8.837 17.35-9.708 12.444-14.137 28.886-10.757 45.567 6.14 30.306 35.685 49.895 65.99 43.755l64.512-13.071c30.305-6.14 49.895-35.684 43.754-65.99-3.62-17.863-15.376-31.998-30.623-39.34z" fill="#f9fbfc"/><path d="m357.918 331.636 37.294-61.299c5.91-8.257 5.126-19.549-1.869-26.911l-27.288-16.524c-3.546-13.083-8.693-25.353-15.169-36.562-9.737-16.855-22.472-31.312-37.26-42.538.418-1.729.804-3.473 1.139-5.236 1.264-6.635-3.133-13.031-9.82-14.284-6.691-1.257-13.133 3.108-14.395 9.745-7.653 40.192-43.176 69.365-84.466 69.365-25.035 0-48.779-10.805-65.145-29.643-4.443-5.113-12.224-5.685-17.378-1.277-5.155 4.409-5.731 12.13-1.288 17.245 1.066 1.226 2.162 2.42 3.275 3.593-7.612 16.29-12.382 34.387-13.678 53.443-.634 9.323-.439 18.872.659 28.55 2.022 17.824 6.934 34.547 14.148 49.662-5.871 6.435-3.697 16.78 4.347 20.259l10.628 4.597c21.513 28.879 52.639 48.398 87.078 52.999 8.744 1.168 14.274 9.934 11.604 18.28l-10.613 33.165c-6.244 19.513 4.598 40.36 24.242 46.615 19.686 6.269 40.765-4.487 47.082-24.021l8.281-25.611 25.809 8.218c19.686 6.269 40.765-4.486 47.082-24.022 6.303-19.493-4.474-40.373-24.099-46.686l-15.362-4.943c-9.732-3.131-13.018-15.073-6.33-22.756 8.602-9.885 15.849-21.149 21.492-33.423z" fill="#e9c278"/><g fill="#f9fbfc"><path d="m374.88 419.723c-1.703 0-3.084 1.38-3.084 3.083s1.381 3.084 3.084 3.084 3.084-1.381 3.084-3.084-1.381-3.083-3.084-3.083z"/><circle cx="374.88" cy="442.686" r="3.084"/><path d="m351.917 204.132c0 1.703 1.381 3.084 3.084 3.084 1.607 0 2.912-1.235 3.055-2.805-.42-.941-.854-1.873-1.291-2.803-.5-.351-1.107-.56-1.764-.56-1.704 0-3.084 1.381-3.084 3.084z"/><path d="m355 227.096c1.703 0 3.083-1.381 3.083-3.084s-1.381-3.084-3.083-3.084c-1.703 0-3.084 1.381-3.084 3.084.001 1.703 1.381 3.084 3.084 3.084z"/><path d="m362.231 233.578c0 1.703 1.381 3.083 3.084 3.083 1.177 0 2.187-.667 2.707-1.635-.283-1.319-.582-2.63-.897-3.934-.509-.371-1.131-.597-1.81-.597-1.704-.001-3.084 1.379-3.084 3.083z"/><path d="m355 246.975c1.703 0 3.083-1.381 3.083-3.083 0-1.704-1.381-3.084-3.083-3.084-1.703 0-3.084 1.38-3.084 3.084.001 1.702 1.381 3.083 3.084 3.083z"/><path d="m365.314 250.373c-1.703 0-3.084 1.381-3.084 3.084s1.381 3.084 3.084 3.084 3.083-1.381 3.083-3.084-1.38-3.084-3.083-3.084z"/><path d="m355 266.854c1.703 0 3.083-1.381 3.083-3.084s-1.381-3.084-3.083-3.084c-1.703 0-3.084 1.381-3.084 3.084.001 1.704 1.381 3.084 3.084 3.084z"/><path d="m365.314 276.42c1.703 0 3.083-1.381 3.083-3.084s-1.381-3.084-3.083-3.084c-1.703 0-3.084 1.381-3.084 3.084s1.381 3.084 3.084 3.084z"/><path d="m355 286.734c1.703 0 3.083-1.381 3.083-3.084s-1.381-3.084-3.083-3.084c-1.703 0-3.084 1.381-3.084 3.084s1.381 3.084 3.084 3.084z"/><path d="m365.314 296.299c1.703 0 3.083-1.38 3.083-3.084 0-1.703-1.381-3.083-3.083-3.083-1.703 0-3.084 1.38-3.084 3.083.001 1.704 1.381 3.084 3.084 3.084z"/><path d="m355 306.613c1.703 0 3.083-1.381 3.083-3.084s-1.381-3.083-3.083-3.083c-1.703 0-3.084 1.38-3.084 3.083s1.381 3.084 3.084 3.084z"/><path d="m355 326.493c1.703 0 3.083-1.381 3.083-3.084s-1.381-3.084-3.083-3.084c-1.703 0-3.084 1.381-3.084 3.084s1.381 3.084 3.084 3.084z"/><path d="m355 399.844c-1.703 0-3.084 1.381-3.084 3.084s1.381 3.083 3.084 3.083 3.083-1.38 3.083-3.083c.001-1.704-1.38-3.084-3.083-3.084z"/><path d="m365.314 409.409c-1.703 0-3.084 1.38-3.084 3.083s1.381 3.084 3.084 3.084 3.083-1.381 3.083-3.084c.001-1.703-1.38-3.083-3.083-3.083z"/><path d="m355 419.723c-1.703 0-3.084 1.38-3.084 3.083s1.381 3.084 3.084 3.084 3.083-1.381 3.083-3.084-1.38-3.083-3.083-3.083z"/><path d="m365.314 429.288c-1.703 0-3.084 1.381-3.084 3.084s1.381 3.084 3.084 3.084 3.083-1.381 3.083-3.084c.001-1.703-1.38-3.084-3.083-3.084z"/><path d="m355 439.602c-1.703 0-3.084 1.381-3.084 3.084s1.381 3.084 3.084 3.084 3.083-1.381 3.083-3.084-1.38-3.084-3.083-3.084z"/><path d="m365.314 449.168c-1.703 0-3.084 1.381-3.084 3.084s1.381 3.083 3.084 3.083 3.083-1.38 3.083-3.083-1.38-3.084-3.083-3.084z"/><path d="m358.084 462.566c0-1.703-1.381-3.084-3.083-3.084-1.703 0-3.084 1.381-3.084 3.084 0 .839.338 1.598.882 2.155 1.744-.293 3.457-.708 5.131-1.239.091-.291.154-.595.154-.916z"/><path d="m335.121 187.336c1.703 0 3.084-1.38 3.084-3.084 0-1.702-1.381-3.083-3.084-3.083s-3.084 1.381-3.084 3.083c0 1.704 1.381 3.084 3.084 3.084z"/><path d="m345.435 190.735c-1.703 0-3.084 1.38-3.084 3.083s1.381 3.084 3.084 3.084 3.084-1.381 3.084-3.084-1.381-3.083-3.084-3.083z"/><circle cx="335.121" cy="204.132" r="3.084"/><path d="m345.435 216.782c1.703 0 3.084-1.381 3.084-3.084s-1.381-3.084-3.084-3.084-3.084 1.381-3.084 3.084 1.381 3.084 3.084 3.084z"/><path d="m335.121 227.096c1.703 0 3.084-1.381 3.084-3.084s-1.381-3.084-3.084-3.084-3.084 1.381-3.084 3.084 1.381 3.084 3.084 3.084z"/><path d="m345.435 236.661c1.703 0 3.084-1.38 3.084-3.083 0-1.704-1.381-3.084-3.084-3.084s-3.084 1.38-3.084 3.084c0 1.703 1.381 3.083 3.084 3.083z"/><path d="m335.121 246.975c1.703 0 3.084-1.381 3.084-3.083 0-1.704-1.381-3.084-3.084-3.084s-3.084 1.38-3.084 3.084c0 1.702 1.381 3.083 3.084 3.083z"/><circle cx="345.435" cy="253.457" r="3.084"/><circle cx="335.121" cy="263.771" r="3.084"/><path d="m345.435 276.42c1.703 0 3.084-1.381 3.084-3.084s-1.381-3.084-3.084-3.084-3.084 1.381-3.084 3.084 1.381 3.084 3.084 3.084z"/><path d="m335.121 286.734c1.703 0 3.084-1.381 3.084-3.084s-1.381-3.084-3.084-3.084-3.084 1.381-3.084 3.084 1.381 3.084 3.084 3.084z"/><path d="m345.435 296.299c1.703 0 3.084-1.38 3.084-3.084 0-1.703-1.381-3.083-3.084-3.083s-3.084 1.38-3.084 3.083c0 1.704 1.381 3.084 3.084 3.084z"/><path d="m335.121 306.613c1.703 0 3.084-1.381 3.084-3.084s-1.381-3.083-3.084-3.083-3.084 1.38-3.084 3.083 1.381 3.084 3.084 3.084z"/><circle cx="345.435" cy="313.095" r="3.084"/><circle cx="335.121" cy="323.409" r="3.084"/><path d="m345.435 336.058c1.703 0 3.084-1.38 3.084-3.083s-1.381-3.084-3.084-3.084-3.084 1.381-3.084 3.084 1.381 3.083 3.084 3.083z"/><path d="m335.121 346.372c1.703 0 3.084-1.38 3.084-3.083s-1.381-3.084-3.084-3.084-3.084 1.381-3.084 3.084 1.381 3.083 3.084 3.083z"/><path d="m335.121 366.252c.139 0 .271-.022.405-.041.279-.392.573-.779.899-1.153.595-.685 1.178-1.382 1.761-2.079-.1-1.613-1.426-2.894-3.065-2.894-1.703 0-3.084 1.38-3.084 3.083s1.381 3.084 3.084 3.084z"/><circle cx="345.435" cy="392.613" r="3.084"/><path d="m335.121 399.844c-1.703 0-3.084 1.381-3.084 3.084s1.381 3.083 3.084 3.083 3.084-1.38 3.084-3.083c-.001-1.704-1.381-3.084-3.084-3.084z"/><path d="m345.435 409.409c-1.703 0-3.084 1.38-3.084 3.083s1.381 3.084 3.084 3.084 3.084-1.381 3.084-3.084c-.001-1.703-1.381-3.083-3.084-3.083z"/><path d="m335.121 419.723c-1.703 0-3.084 1.38-3.084 3.083s1.381 3.084 3.084 3.084 3.084-1.381 3.084-3.084-1.381-3.083-3.084-3.083z"/><circle cx="345.435" cy="432.372" r="3.084"/><circle cx="335.121" cy="442.686" r="3.084"/><path d="m325.526 449.147c-1.703 0-3.083 1.381-3.083 3.084s1.38 3.084 3.083 3.084 3.084-1.381 3.084-3.084-1.381-3.084-3.084-3.084z"/><path d="m348.518 452.252c0-1.703-1.381-3.084-3.084-3.084s-3.084 1.381-3.084 3.084 1.381 3.083 3.084 3.083 3.084-1.38 3.084-3.083z"/><path d="m315.241 161.29c-1.703 0-3.083 1.381-3.083 3.084s1.38 3.084 3.083 3.084 3.084-1.381 3.084-3.084-1.381-3.084-3.084-3.084z"/><path d="m325.555 170.855c-1.703 0-3.084 1.381-3.084 3.083 0 1.704 1.381 3.084 3.084 3.084s3.084-1.38 3.084-3.084c0-1.702-1.381-3.083-3.084-3.083z"/><path d="m315.241 181.169c-1.703 0-3.083 1.381-3.083 3.083 0 1.704 1.38 3.084 3.083 3.084s3.084-1.38 3.084-3.084c0-1.702-1.381-3.083-3.084-3.083z"/><path d="m325.555 190.735c-1.703 0-3.084 1.38-3.084 3.083s1.381 3.084 3.084 3.084 3.084-1.381 3.084-3.084-1.381-3.083-3.084-3.083z"/><path d="m315.241 201.048c-1.703 0-3.083 1.381-3.083 3.084s1.38 3.084 3.083 3.084 3.084-1.381 3.084-3.084-1.381-3.084-3.084-3.084z"/><path d="m325.555 210.614c-1.703 0-3.084 1.381-3.084 3.084s1.381 3.084 3.084 3.084 3.084-1.381 3.084-3.084-1.381-3.084-3.084-3.084z"/><path d="m325.555 230.494c-1.703 0-3.084 1.38-3.084 3.084 0 1.703 1.381 3.083 3.084 3.083s3.084-1.38 3.084-3.083c0-1.704-1.381-3.084-3.084-3.084z"/><path d="m315.241 240.808c-1.595 0-2.892 1.215-3.052 2.768.143.631.283 1.263.419 1.899.54.895 1.512 1.499 2.633 1.499 1.703 0 3.084-1.381 3.084-3.083 0-1.703-1.381-3.083-3.084-3.083z"/><path d="m325.555 250.373c-1.703 0-3.084 1.381-3.084 3.084s1.381 3.084 3.084 3.084 3.084-1.381 3.084-3.084-1.381-3.084-3.084-3.084z"/><path d="m325.555 270.253c-1.703 0-3.084 1.381-3.084 3.084s1.381 3.084 3.084 3.084 3.084-1.381 3.084-3.084-1.381-3.084-3.084-3.084z"/><path d="m325.555 290.132c-1.703 0-3.084 1.38-3.084 3.083 0 1.704 1.381 3.084 3.084 3.084s3.084-1.38 3.084-3.084c0-1.703-1.381-3.083-3.084-3.083z"/><path d="m315.265 300.472c-1.703 0-3.084 1.38-3.084 3.083 0 1.704 1.381 3.084 3.084 3.084s3.084-1.38 3.084-3.084c0-1.703-1.381-3.083-3.084-3.083z"/><path d="m325.555 310.011c-1.703 0-3.084 1.381-3.084 3.084s1.381 3.084 3.084 3.084 3.084-1.381 3.084-3.084-1.381-3.084-3.084-3.084z"/><path d="m315.241 320.325c-1.703 0-3.083 1.381-3.083 3.084s1.38 3.084 3.083 3.084 3.084-1.381 3.084-3.084-1.381-3.084-3.084-3.084z"/><path d="m325.555 329.891c-1.703 0-3.084 1.381-3.084 3.084s1.381 3.083 3.084 3.083 3.084-1.38 3.084-3.083-1.381-3.084-3.084-3.084z"/><path d="m315.241 340.205c-1.703 0-3.083 1.381-3.083 3.084s1.38 3.083 3.083 3.083 3.084-1.38 3.084-3.083-1.381-3.084-3.084-3.084z"/><path d="m325.555 349.771c-1.703 0-3.084 1.38-3.084 3.083s1.381 3.084 3.084 3.084 3.084-1.381 3.084-3.084-1.381-3.083-3.084-3.083z"/><path d="m315.241 360.085c-1.703 0-3.083 1.38-3.083 3.083s1.38 3.084 3.083 3.084 3.084-1.381 3.084-3.084-1.381-3.083-3.084-3.083z"/><path d="m325.555 369.65c-1.703 0-3.084 1.381-3.084 3.084s1.381 3.084 3.084 3.084 3.084-1.381 3.084-3.084-1.381-3.084-3.084-3.084z"/><path d="m315.241 379.964c-1.703 0-3.083 1.381-3.083 3.084s1.38 3.084 3.083 3.084 3.084-1.381 3.084-3.084-1.381-3.084-3.084-3.084z"/><path d="m325.555 389.53c-1.703 0-3.084 1.381-3.084 3.084s1.381 3.084 3.084 3.084 3.084-1.381 3.084-3.084c0-1.704-1.381-3.084-3.084-3.084z"/><path d="m315.241 399.844c-1.703 0-3.083 1.381-3.083 3.084s1.38 3.083 3.083 3.083 3.084-1.38 3.084-3.083c0-1.704-1.381-3.084-3.084-3.084z"/><path d="m325.555 409.409c-1.703 0-3.084 1.38-3.084 3.083s1.381 3.084 3.084 3.084 3.084-1.381 3.084-3.084-1.381-3.083-3.084-3.083z"/><path d="m305.676 177.022c1.703 0 3.084-1.38 3.084-3.084 0-1.702-1.381-3.083-3.084-3.083s-3.084 1.381-3.084 3.083c0 1.704 1.381 3.084 3.084 3.084z"/><path d="m305.676 196.902c1.703 0 3.084-1.381 3.084-3.084s-1.381-3.083-3.084-3.083-3.084 1.38-3.084 3.083 1.381 3.084 3.084 3.084z"/><path d="m305.676 349.771c-1.703 0-3.084 1.38-3.084 3.083s1.381 3.084 3.084 3.084 3.084-1.381 3.084-3.084-1.381-3.083-3.084-3.083z"/><path d="m295.362 360.085c-1.703 0-3.084 1.38-3.084 3.083s1.381 3.084 3.084 3.084 3.084-1.381 3.084-3.084-1.381-3.083-3.084-3.083z"/><path d="m285.817 369.63c-1.703 0-3.083 1.38-3.083 3.083s1.38 3.084 3.083 3.084 3.084-1.381 3.084-3.084c0-1.704-1.381-3.083-3.084-3.083z"/><path d="m305.676 369.65c-1.703 0-3.084 1.381-3.084 3.084s1.381 3.084 3.084 3.084 3.084-1.381 3.084-3.084-1.381-3.084-3.084-3.084z"/><circle cx="295.362" cy="383.048" r="3.084"/><path d="m305.676 389.53c-1.703 0-3.084 1.381-3.084 3.084s1.381 3.084 3.084 3.084 3.084-1.381 3.084-3.084c0-1.704-1.381-3.084-3.084-3.084z"/><circle cx="285.796" cy="392.613" r="3.084"/><path d="m315.201 260.687c-1.703 0-3.084 1.381-3.084 3.084s1.381 3.084 3.084 3.084 3.084-1.381 3.084-3.084-1.381-3.084-3.084-3.084z"/></g><g fill="#eaa895"><path d="m172.523 105.564c-.991 0-1.983-.364-2.758-1.1-1.608-1.523-1.677-4.062-.153-5.67l10.538-11.123c1.524-1.609 4.063-1.677 5.671-.153 1.608 1.523 1.677 4.062.153 5.67l-10.538 11.123c-.789.833-1.85 1.253-2.913 1.253z"/><path d="m241.781 108.373c-1.281 0-2.54-.612-3.317-1.751l-8.634-12.658c-1.249-1.83-.777-4.326 1.053-5.574 1.829-1.247 4.324-.778 5.574 1.054l8.634 12.657c1.249 1.83.777 4.326-1.053 5.574-.691.472-1.478.698-2.257.698z"/><path d="m180.485 168.575c-.059 0-.118-.001-.179-.004-2.213-.097-3.928-1.969-3.831-4.183l.671-15.306c.097-2.213 1.957-3.935 4.183-3.832 2.213.097 3.928 1.969 3.832 4.183l-.671 15.306c-.095 2.153-1.871 3.836-4.005 3.836z"/><path d="m220.593 130.35c-.466 0-.939-.081-1.4-.254l-14.357-5.351c-2.076-.774-3.131-3.084-2.358-5.159.773-2.077 3.083-3.134 5.16-2.358l14.357 5.351c2.076.774 3.131 3.084 2.358 5.159-.602 1.615-2.133 2.612-3.76 2.612z"/><path d="m201.995 73.316c-1.578 0-3.074-.936-3.711-2.486-.843-2.049.135-4.392 2.183-5.235l14.17-5.83c2.049-.846 4.392.134 5.236 2.184.843 2.049-.135 4.392-2.183 5.235l-14.169 5.83c-.501.205-1.018.302-1.526.302z"/></g><path d="m296.799 255.094c-5.288 0-10.384-1.775-14.579-5.122-4.898-3.907-7.981-9.486-8.682-15.711s1.064-12.351 4.97-17.248c3.906-4.898 9.487-7.981 15.712-8.681 12.853-1.441 24.483 7.831 25.93 20.682.701 6.225-1.064 12.351-4.97 17.249-3.906 4.897-9.486 7.98-15.712 8.682-.891.099-1.783.149-2.669.149zm.057-38.889c-.574 0-1.154.032-1.738.098-4.095.461-7.767 2.489-10.337 5.712-2.571 3.222-3.732 7.253-3.271 11.349.461 4.095 2.489 7.767 5.712 10.337 3.222 2.57 7.247 3.73 11.349 3.271 4.095-.461 7.767-2.49 10.337-5.712 2.571-3.223 3.732-7.253 3.271-11.349-.886-7.871-7.581-13.706-15.323-13.706z" fill="#31373d"/><path d="m268.907 466.399c-.287 0-.577-.031-.868-.095-2.163-.478-3.53-2.618-3.053-4.781l9.214-41.764c.477-2.163 2.617-3.531 4.781-3.053 2.163.478 3.53 2.618 3.053 4.781l-9.214 41.764c-.413 1.872-2.072 3.148-3.913 3.148z" fill="#31373d"/><path d="m344.657 434.884c-.73 0-1.469-.2-2.133-.617l-35.901-22.592c-1.874-1.18-2.438-3.657-1.258-5.532 1.18-1.872 3.655-2.437 5.532-1.258l35.901 22.591c1.874 1.18 2.439 3.657 1.258 5.532-.763 1.211-2.066 1.876-3.399 1.876z" fill="#31373d"/><path d="m361.478 333.501 37.085-60.957c6.919-9.794 5.956-23.177-2.314-31.881-.246-.258-.525-.484-.829-.669l-25.912-15.69c-3.543-12.598-8.599-24.632-15.149-35.971-9.499-16.441-21.867-30.773-36.247-42.124.209-.96.409-1.923.594-2.893.809-4.247-.089-8.556-2.53-12.134-2.46-3.606-6.186-6.036-10.491-6.843-2.437-.455-4.846-.327-7.101.256-4.49-5.04-9.842-9.351-15.945-12.696 1.037-5.213 1.021-10.509-.049-15.788-2.951-14.568-13.73-26.301-27.83-30.582-.067-.396-.14-.787-.218-1.174-3.675-18.143-19.956-30.849-38.264-30.169-8.788-7.815-12.705-16.423-11.968-26.274.219-2.931-1.258-5.62-3.855-7.018-2.59-1.391-5.639-1.145-7.955.648-13.764 10.646-21.209 24.631-22.162 41.607-18.341 5.565-29.856 24.43-25.986 43.531.132.651.286 1.311.459 1.975-10.553 9.543-15.305 23.815-12.452 37.894 1.239 6.114 3.867 11.834 7.663 16.722-5.515 7.918-8.974 16.955-10.23 26.337-3.161.347-6.252 1.604-8.838 3.814-3.313 2.834-5.315 6.782-5.636 11.115-.321 4.329 1.074 8.523 3.928 11.809.515.592 1.041 1.174 1.567 1.755-7.261 16.333-11.704 34.161-12.943 52.378-.658 9.678-.431 19.528.675 29.275 1.924 16.958 6.548 33.421 13.506 48.636-2.381 3.656-3.266 8.142-2.379 12.492 1.093 5.358 4.742 9.852 9.76 12.022l9.689 4.191c2.912 3.864 5.999 7.585 9.267 11.126 21.665 23.473 50.008 38.592 79.81 42.573 2.987.399 5.622 2.084 7.228 4.623 1.601 2.53 1.997 5.613 1.087 8.458l-10.613 33.167c-3.334 10.417-2.405 21.51 2.615 31.237 5.06 9.806 13.665 17.059 24.23 20.422 4.191 1.335 8.441 1.968 12.624 1.968 17.526 0 33.854-11.141 39.491-28.578l7.053-21.811 22.004 7.007c21.756 6.928 45.132-5.01 52.115-26.61 3.366-10.407 2.471-21.504-2.52-31.246-5.03-9.82-13.612-17.099-24.167-20.494l-15.362-4.943c-3.32-1.068-5.755-3.587-6.682-6.911-.928-3.335-.145-6.757 2.15-9.393 8.942-10.273 16.315-21.803 22.027-34.189zm29.302-86.938c5.338 5.963 5.852 14.896 1.169 21.439-.058.081-.113.164-.164.25l-19.415 31.913c3.305-16.183 4.102-33.115 2.171-50.143-.565-4.978-1.359-9.883-2.356-14.718zm-242.701-106.175c-3.971-4.319-6.688-9.655-7.858-15.432-2.433-12.005 2.039-24.186 11.67-31.788 1.331-1.051 1.858-2.826 1.315-4.432-.424-1.256-.749-2.45-.992-3.649-3.214-15.857 7.046-31.506 22.869-34.884 1.836-.393 3.154-2.006 3.173-3.883.154-15.514 6.035-27.793 17.968-37.494-.445 12.247 4.96 23.185 16.082 32.531.809.68 1.854 1.007 2.91.926 14.944-1.23 28.478 8.94 31.462 23.666.206 1.014.361 2.07.462 3.142.163 1.723 1.413 3.147 3.1 3.533 12.36 2.823 21.971 12.668 24.486 25.08 1.034 5.102.838 10.224-.584 15.223-.534 1.876.36 3.864 2.118 4.71 5.767 2.777 10.851 6.498 15.111 10.948-2.38 2.259-4.108 5.238-4.765 8.691-7.292 38.303-41.158 66.104-80.526 66.104-23.873 0-46.513-10.301-62.117-28.264-1.75-2.014-3.9-3.483-6.23-4.417 1.208-9.057 4.789-17.741 10.553-25.13 1.209-1.545 1.121-3.737-.207-5.181zm-24.762 44.743c.162-2.185 1.175-4.178 2.85-5.611 1.571-1.344 3.507-2.002 5.435-2.002 2.339 0 4.665.971 6.309 2.861 17.127 19.716 41.975 31.024 68.173 31.024 43.214 0 80.394-30.544 88.407-72.627.848-4.46 5.21-7.402 9.715-6.551 2.197.411 4.094 1.647 5.343 3.479 1.231 1.803 1.683 3.974 1.276 6.112-9.488 49.844-53.538 86.02-104.741 86.02-31.048 0-60.492-13.395-80.782-36.749-1.442-1.66-2.147-3.775-1.985-5.956zm-7.445 65.893c1.101-16.193 4.871-32.055 10.999-46.721 21.245 20.167 49.545 31.555 79.212 31.555 51.052 0 95.489-33.476 109.816-81.106 12.411 10.347 23.136 23.096 31.512 37.594 2.698 4.669 5.124 9.467 7.288 14.375-26.49 48.655-75.384 77.691-134.282 79.687-39.703 1.348-81.654-8.028-104.399-23.327-.154-.104-.318-.177-.48-.257-.036-3.95.068-7.89.334-11.8zm32.014 101.124 7.221-15.946c.914-2.018.019-4.395-1.999-5.309-2.017-.916-4.395-.019-5.308 1.999l-7.278 16.07-7.906-3.42c-2.653-1.148-4.507-3.431-5.084-6.264-.578-2.832.233-5.659 2.224-7.755l7.25-7.628c6.818-7.173 16.361-10.576 26.178-9.339 9.818 1.238 18.216 6.903 23.04 15.544l22.369 40.066c1.367 2.448-.078 4.354-.553 4.88-.476.526-2.227 2.151-4.8 1.043l-30.03-12.989 6.89-15.215c.914-2.018.019-4.395-2-5.309-2.017-.917-4.395-.019-5.309 1.999l-6.946 15.34zm181.688 27.089c1.637 5.881 6.106 10.515 11.953 12.395l15.362 4.943c8.511 2.739 15.431 8.604 19.483 16.515 4.012 7.832 4.732 16.754 2.027 25.12-5.63 17.409-24.498 27.021-42.048 21.433l-25.81-8.218c-2.103-.671-4.355.487-5.034 2.588l-8.281 25.611c-5.63 17.41-24.497 27.023-42.048 21.433-8.521-2.713-15.459-8.557-19.535-16.456-4.036-7.821-4.783-16.74-2.104-25.114l10.613-33.165c1.636-5.112.926-10.65-1.947-15.192-2.88-4.551-7.598-7.571-12.945-8.286-27.901-3.727-53.331-17.718-73.039-38.35l43.834 18.96c1.609.696 3.282 1.035 4.929 1.035 3.358 0 6.61-1.408 9.008-4.061 3.574-3.954 4.204-9.517 1.605-14.17l-22.369-40.066c-6.081-10.891-16.666-18.033-29.042-19.593-12.377-1.558-24.403 2.73-32.997 11.771l-3.217 3.384c-5.79-13.355-9.745-27.794-11.459-42.903-.24-2.112-.43-4.23-.583-6.349 23.229 13.72 59.801 22.063 96.612 22.063 2.716 0 5.434-.045 8.147-.137 59.495-2.017 109.299-30.41 137.814-78.202 3.997 11.079 6.7 22.679 8.065 34.702 4.681 41.261-7.408 81.901-33.169 111.498-4.036 4.635-5.467 10.921-3.825 16.811z" fill="#31373d"/></g></svg>